<svg width="954" height="960" viewBox="0 0 954 960" fill="none" xmlns="http://www.w3.org/2000/svg">
<path d="M510.493 92.0135C505.011 91.101 499.89 89.4586 495.132 87.0862C490.385 84.647 486.746 81.9457 484.216 78.9823L490.415 69.6042C492.855 72.278 496.026 74.6952 499.927 76.8561C503.827 79.0169 507.95 80.459 512.296 81.1823C515.973 81.7943 519.015 81.8883 521.422 81.4644C523.829 81.0404 525.678 80.2489 526.971 79.0897C528.274 77.8637 529.07 76.3816 529.36 74.6432C529.716 72.5037 529.231 70.6708 527.904 69.1446C526.589 67.5514 524.756 66.1813 522.405 65.0341C520.131 63.8312 517.546 62.6451 514.648 61.4757C511.818 60.3175 508.971 59.0534 506.107 57.6835C503.321 56.2578 500.807 54.6371 498.567 52.8214C496.405 50.9498 494.756 48.6827 493.618 46.0198C492.481 43.3569 492.224 40.1534 492.847 36.4093C493.482 32.5983 495.063 29.2885 497.592 26.48C500.199 23.6157 503.731 21.5925 508.187 20.4103C512.722 19.1725 518.199 19.0877 524.617 20.156C528.83 20.857 532.919 22.0874 536.887 23.8471C540.854 25.6067 544.208 27.7454 546.95 30.2631L541.152 39.7079C538.321 37.3128 535.307 35.4025 532.109 33.9769C528.921 32.4845 525.79 31.4824 522.714 30.9705C519.104 30.3696 516.09 30.3145 513.672 30.8054C511.321 31.3073 509.494 32.1713 508.19 33.3973C506.954 34.6344 506.185 36.1556 505.885 37.9608C505.529 40.1003 505.975 41.961 507.223 43.543C508.55 45.0693 510.355 46.4005 512.64 47.5365C514.991 48.6837 517.61 49.8754 520.496 51.1116C523.393 52.2809 526.241 53.545 529.038 54.9038C531.902 56.2737 534.42 57.861 536.594 59.6657C538.834 61.4814 540.489 63.7152 541.559 66.3669C542.696 69.0298 542.959 72.1999 542.347 75.8772C541.724 79.6213 540.109 82.9255 537.502 85.7898C534.973 88.5983 531.442 90.6215 526.907 91.8594C522.383 93.0304 516.912 93.0818 510.493 92.0135Z" fill="white"/>
<path d="M644.385 129.12C639.658 126.464 635.687 123.222 632.474 119.395C629.352 115.541 627.081 111.35 625.662 106.82C624.334 102.265 623.939 97.5722 624.476 92.7426C625.013 87.9131 626.577 83.1938 629.167 78.5849C631.757 73.976 634.974 70.1865 638.82 67.2164C642.666 64.2462 646.893 62.1898 651.5 61.0469C656.141 59.845 660.902 59.6049 665.783 60.3265C670.698 60.989 675.548 62.665 680.334 65.3546C685.416 68.2102 689.556 71.703 692.755 75.8332C695.988 79.9043 698.089 84.4669 699.058 89.5211L687.678 92.3393C686.794 88.6549 685.296 85.4415 683.183 82.6991C681.103 79.8977 678.438 77.5838 675.188 75.7576C671.938 73.9313 668.655 72.7863 665.34 72.3225C662.083 71.8919 658.902 72.0871 655.798 72.908C652.752 73.7622 649.921 75.2033 647.304 77.2314C644.746 79.2928 642.571 81.9188 640.777 85.1096C638.984 88.3004 637.873 91.5241 637.442 94.7808C637.071 98.0706 637.312 101.238 638.166 104.284C639.079 107.363 640.567 110.181 642.628 112.739C644.748 115.33 647.433 117.539 650.683 119.365C653.933 121.191 657.279 122.294 660.72 122.673C664.194 122.992 667.752 122.542 671.392 121.322L674.852 132.597C670.064 134.338 665.074 134.916 659.883 134.331C654.692 133.746 649.526 132.009 644.385 129.12Z" fill="white"/>
<path d="M736.195 184.756L790.597 138.873L809.475 161.256C813.539 166.074 816.235 170.849 817.565 175.579C818.939 180.362 818.961 184.909 817.633 189.221C816.304 193.534 813.646 197.372 809.656 200.737C805.666 204.102 801.434 206.075 796.96 206.657C792.537 207.195 788.085 206.384 783.602 204.223C779.216 202.071 774.991 198.586 770.927 193.767L756.768 176.98L765.156 177.62L744.716 194.859L736.195 184.756ZM766.215 220.351L774.354 189.946L783.465 200.748L775.392 231.231L766.215 220.351ZM764.067 178.538L765.084 169.966L778.849 186.287C782.607 190.743 786.384 193.277 790.18 193.888C794.02 194.55 797.65 193.44 801.069 190.556C804.541 187.628 806.248 184.238 806.19 180.385C806.176 176.584 804.29 172.455 800.532 168L786.768 151.679L795.543 151.991L764.067 178.538Z" fill="white"/>
<path d="M834.087 327.071C832.317 321.802 831.554 316.66 831.8 311.644C832.045 306.628 833.158 301.963 835.141 297.65C837.188 293.316 839.998 289.547 843.57 286.345C847.205 283.121 851.529 280.667 856.54 278.983C861.552 277.299 866.448 276.655 871.229 277.051C876.074 277.425 880.588 278.732 884.773 280.973C889.023 283.191 892.76 286.226 895.984 290.076C899.208 293.926 901.695 298.454 903.444 303.658C905.214 308.926 905.966 314.036 905.699 318.988C905.454 324.004 904.308 328.679 902.261 333.014C900.278 337.327 897.469 341.095 893.833 344.319C890.261 347.522 885.97 349.965 880.958 351.649C875.947 353.333 871.019 353.988 866.174 353.614C861.329 353.24 856.814 351.932 852.629 349.692C848.444 347.452 844.739 344.406 841.515 340.556C838.312 336.77 835.836 332.275 834.087 327.071ZM845.042 323.283C846.186 326.688 847.822 329.642 849.95 332.144C852.078 334.647 854.558 336.602 857.391 338.01C860.288 339.396 863.344 340.192 866.56 340.399C869.861 340.648 873.246 340.19 876.716 339.024C880.185 337.858 883.128 336.19 885.545 334.019C888.048 331.891 890.003 329.411 891.411 326.578C892.883 323.724 893.711 320.657 893.896 317.377C894.081 314.097 893.601 310.755 892.457 307.35C891.313 303.944 889.677 300.99 887.549 298.488C885.442 296.05 882.93 294.105 880.011 292.655C877.179 291.247 874.112 290.419 870.81 290.169C867.595 289.963 864.252 290.442 860.783 291.608C857.378 292.753 854.424 294.389 851.921 296.517C849.44 298.709 847.464 301.232 845.992 304.086C844.584 306.919 843.788 309.975 843.603 313.255C843.418 316.535 843.897 319.877 845.042 323.283Z" fill="white"/>
<path d="M866.387 441.99L937.513 444.427L937.061 457.636L877.111 455.582L875.837 492.771L864.66 492.388L866.387 441.99Z" fill="white"/>
<path d="M858.125 568.131L924.761 593.121L920.12 605.497L863.955 584.433L850.888 619.274L840.417 615.347L858.125 568.131Z" fill="white"/>
<path d="M725.801 777.441C731.657 784.11 742.67 790.253 757.345 791.66C764.569 792.373 771.086 791.731 776.668 789.754L778.892 793.399C770.515 801.727 764.907 814.201 764.2 826.9C763.829 833.319 764.534 838.963 766.473 844.093L762.828 846.317C756.004 838.452 743.303 832.863 730.132 831.967C723.66 831.51 717.649 832.2 712.24 834.072L710.016 830.426C718.431 822.552 724.384 807.128 724.589 794.974C724.666 788.853 723.825 783.768 722.156 779.665L725.801 777.441Z" fill="white"/>
<path d="M458.44 867.799C463.956 868.477 469.142 869.899 473.998 872.066C478.845 874.301 482.596 876.844 485.25 879.697L479.457 889.331C476.904 886.764 473.633 884.484 469.644 882.492C465.655 880.499 461.474 879.235 457.101 878.697C453.401 878.243 450.358 878.279 447.971 878.805C445.585 879.332 443.771 880.201 442.529 881.415C441.279 882.695 440.547 884.21 440.332 885.959C440.068 888.112 440.631 889.922 442.021 891.391C443.403 892.926 445.293 894.217 447.691 895.262C450.014 896.367 452.648 897.442 455.592 898.487C458.47 899.523 461.368 900.664 464.288 901.911C467.132 903.216 469.712 904.728 472.028 906.447C474.268 908.224 476.013 910.419 477.263 913.031C478.513 915.643 478.906 918.832 478.443 922.599C477.972 926.434 476.533 929.808 474.127 932.722C471.645 935.695 468.202 937.867 463.8 939.239C459.322 940.669 453.854 940.987 447.396 940.194C443.158 939.674 439.019 938.619 434.981 937.03C430.942 935.441 427.499 933.448 424.652 931.05L430.042 921.366C432.972 923.638 436.066 925.418 439.322 926.706C442.57 928.061 445.741 928.928 448.836 929.308C452.468 929.755 455.482 929.681 457.877 929.087C460.204 928.485 461.993 927.544 463.243 926.264C464.425 924.975 465.128 923.422 465.351 921.606C465.616 919.453 465.091 917.613 463.776 916.086C462.386 914.618 460.525 913.365 458.194 912.327C455.796 911.281 453.129 910.203 450.192 909.091C447.248 908.046 444.349 906.905 441.496 905.667C438.577 904.42 435.992 902.942 433.744 901.232C431.429 899.513 429.679 897.352 428.497 894.748C427.247 892.137 426.85 888.981 427.304 885.281C427.767 881.513 429.239 878.143 431.721 875.17C434.128 872.256 437.57 870.084 442.048 868.654C446.518 867.291 451.982 867.006 458.44 867.799Z" fill="white"/>
<path d="M323.205 836.521C328.042 838.971 332.149 842.039 335.525 845.724C338.809 849.439 341.258 853.529 342.872 857.993C344.395 862.487 344.992 867.158 344.663 872.006C344.335 876.855 342.977 881.637 340.588 886.353C338.199 891.07 335.147 894.994 331.433 898.127C327.718 901.261 323.584 903.497 319.031 904.838C314.446 906.238 309.7 906.684 304.792 906.173C299.854 905.723 294.936 904.258 290.038 901.777C284.838 899.143 280.551 895.832 277.177 891.844C273.772 887.916 271.476 883.448 270.29 878.44L281.537 875.134C282.579 878.777 284.215 881.923 286.444 884.571C288.643 887.281 291.405 889.477 294.731 891.162C298.056 892.846 301.385 893.849 304.718 894.169C307.99 894.459 311.16 894.127 314.226 893.173C317.232 892.188 319.999 890.626 322.526 888.487C324.992 886.318 327.052 883.6 328.706 880.335C330.36 877.07 331.332 873.801 331.622 870.529C331.851 867.226 331.473 864.072 330.489 861.066C329.444 858.029 327.836 855.278 325.667 852.811C323.437 850.314 320.659 848.223 317.333 846.539C314.008 844.854 310.618 843.897 307.163 843.667C303.678 843.497 300.144 844.1 296.56 845.476L292.616 834.361C297.325 832.415 302.285 831.623 307.497 831.983C312.708 832.344 317.945 833.856 323.205 836.521Z" fill="white"/>
<path d="M229.077 784.868L176.685 833.033L156.868 811.477C152.602 806.837 149.704 802.182 148.173 797.513C146.597 792.793 146.38 788.251 147.523 783.886C148.666 779.521 151.158 775.572 155 772.04C158.843 768.508 162.986 766.356 167.432 765.583C171.828 764.857 176.311 765.477 180.881 767.444C185.356 769.407 189.726 772.709 193.992 777.349L208.855 793.516L200.448 793.235L220.132 775.138L229.077 784.868ZM197.564 750.589L190.731 781.313L181.167 770.91L187.931 740.11L197.564 750.589ZM201.496 792.271L200.846 800.878L186.396 785.161C182.451 780.869 178.57 778.5 174.751 778.051C170.886 777.553 167.307 778.818 164.014 781.845C160.671 784.918 159.11 788.379 159.332 792.225C159.509 796.022 161.569 800.067 165.514 804.358L179.964 820.076L171.183 820.138L201.496 792.271Z" fill="white"/>
<path d="M125.144 646.818C127.14 652.005 128.124 657.11 128.095 662.132C128.066 667.154 127.155 671.862 125.359 676.257C123.501 680.675 120.857 684.561 117.426 687.915C113.933 691.292 109.719 693.93 104.785 695.829C99.8506 697.727 94.9869 698.582 90.1936 698.392C85.3371 698.227 80.77 697.116 76.4923 695.058C72.1514 693.024 68.2872 690.154 64.8999 686.446C61.5126 682.738 58.8332 678.323 56.8618 673.199C54.866 668.011 53.8946 662.939 53.9476 657.98C53.9762 652.958 54.9197 648.237 56.7781 643.819C58.5733 639.424 61.2176 635.538 64.7112 632.161C68.1415 628.807 72.3238 626.182 77.2579 624.283C82.1921 622.385 87.0874 621.518 91.944 621.683C96.8005 621.848 101.368 622.959 105.645 625.017C109.923 627.075 113.755 629.958 117.143 633.666C120.506 637.31 123.173 641.694 125.144 646.818ZM114.364 651.075C113.074 647.722 111.312 644.842 109.078 642.433C106.844 640.025 104.282 638.178 101.391 636.894C98.4372 635.634 95.3494 634.97 92.128 634.902C88.8189 634.795 85.4564 635.399 82.0404 636.714C78.6245 638.028 75.756 639.821 73.4351 642.094C71.0266 644.328 69.1801 646.89 67.8957 649.781C66.5481 652.696 65.8526 655.796 65.8092 659.081C65.7658 662.365 66.389 665.684 67.679 669.037C68.9689 672.389 70.7308 675.27 72.9647 677.679C75.1742 680.024 77.7682 681.858 80.7465 683.181C83.6372 684.466 86.737 685.161 90.0461 685.268C93.2676 685.336 96.5863 684.713 100.002 683.398C103.355 682.108 106.236 680.346 108.644 678.113C111.028 675.815 112.894 673.209 114.242 670.294C115.526 667.404 116.19 664.316 116.234 661.031C116.277 657.746 115.654 654.428 114.364 651.075Z" fill="white"/>
<path d="M87.9672 533.756L16.8019 534.376L16.6868 521.16L76.669 520.637L76.3449 483.428L87.528 483.331L87.9672 533.756Z" fill="white"/>
<path d="M90.8229 407.031L23.1709 384.938L27.2738 372.374L84.2948 390.995L95.8461 355.623L106.477 359.094L90.8229 407.031Z" fill="white"/>
<path d="M214.058 192.255C207.921 185.842 196.655 180.176 181.934 179.398C174.686 178.995 168.203 179.915 162.71 182.129L160.332 178.582C168.345 169.904 173.415 157.201 173.578 144.484C173.673 138.054 172.728 132.445 170.571 127.404L174.117 125.026C181.272 132.592 194.2 137.632 207.398 137.963C213.884 138.143 219.859 137.197 225.183 135.096L227.561 138.642C219.49 146.869 214.203 162.534 214.518 174.686C214.704 180.804 215.761 185.849 217.604 189.876L214.058 192.255Z" fill="white"/>
</svg>
